<svg xmlns="http://www.w3.org/2000/svg" viewBox="0 0 512 512" role="img" aria-label="Suwol Audio Reference icon">
  <defs>
    <linearGradient id="bg" x1="64" y1="48" x2="448" y2="464" gradientUnits="userSpaceOnUse">
      <stop offset="0" stop-color="#1b2528"/>
      <stop offset="1" stop-color="#0e1114"/>
    </linearGradient>
    <linearGradient id="wave" x1="104" y1="128" x2="408" y2="376" gradientUnits="userSpaceOnUse">
      <stop offset="0" stop-color="#55c7a5"/>
      <stop offset="1" stop-color="#7aa7ff"/>
    </linearGradient>
  </defs>
  <rect x="32" y="32" width="448" height="448" rx="108" fill="url(#bg)"/>
  <path d="M142 146h228c24 0 44 20 44 44v176c0 24-20 44-44 44H142c-24 0-44-20-44-44V190c0-24 20-44 44-44z" fill="#151a1d" stroke="#334148" stroke-width="16"/>
  <path d="M151 146v-28c0-20 16-36 36-36h138c20 0 36 16 36 36v28" fill="none" stroke="#334148" stroke-width="18" stroke-linecap="round"/>
  <path d="M142 270h228" stroke="#2a3338" stroke-width="18" stroke-linecap="round"/>
  <path d="M148 315c24-47 48-47 72 0s48 47 72 0 48-47 72 0" fill="none" stroke="url(#wave)" stroke-width="24" stroke-linecap="round" stroke-linejoin="round"/>
  <path d="M151 222h210" stroke="#55c7a5" stroke-width="18" stroke-linecap="round"/>
</svg>
